<svg width="181" height="32" viewBox="0 0 181 32" fill="none" xmlns="http://www.w3.org/2000/svg">
<path fill-rule="evenodd" clip-rule="evenodd" d="M1.19235 4.30866L2.38469 5.46888H16.1766H29.9685L30.9842 4.30866L32 3.14844H16H0L1.19235 4.30866ZM4.20777 7.51989L5.37743 8.79742L8.53812 8.80902L11.6988 8.82062L11.7782 10.6375L11.8576 12.4542L14.0176 9.93546C15.2056 8.5499 16.3991 7.15223 16.6699 6.82943L17.1618 6.24236H10.1001H3.0381L4.20777 7.51989ZM17.7977 9.96395C15.9201 12.1712 16.0459 11.4039 16.0486 20.614C16.05 25.2226 16.1401 29.1181 16.2492 29.2705C16.3583 29.4229 17.2072 30.0365 18.1352 30.6336L19.8227 31.7199V21.6548V11.5901H23.5353L27.2479 11.5898L28.4103 10.3009L29.5729 9.0118H24.0902H18.6077L17.7977 9.96395ZM13.6742 11.9924L11.9807 13.9475L12.0541 18.9215L12.1276 26.8491L13.6771 27.8657C14.5293 28.4249 15.2904 28.8215 15.3687 28.747C15.4468 28.6722 15.4786 22.143 15.4392 17.8474L15.3676 10.0373L13.6742 11.9924Z" fill="url(#paint0_linear_637_1047)"/>
<path d="M44.68 7.91973H56.152V10.2957H47.464V15.4317H55V17.8077H47.464V24.7197H44.68V7.91973ZM58.0806 10.1997V8.80773L59.0646 7.84773H60.5286L61.5126 8.80773V10.1997L60.5286 11.1597H59.0646L58.0806 10.1997ZM58.4406 12.7677H61.1526V24.7197H58.4406V12.7677ZM64.5053 12.7677H67.0253V14.9517L69.2093 12.7677H73.0013L75.5213 15.2877V24.7197H72.8093V16.0317L71.8733 15.0957H69.7133L67.2173 17.6157V24.7197H64.5053V12.7677ZM78.4009 10.1997V8.80773L79.3849 7.84773H80.8489L81.8329 8.80773V10.1997L80.8489 11.1597H79.3849L78.4009 10.1997ZM78.7609 12.7677H81.4729V24.7197H78.7609V12.7677ZM85.9056 22.3437V15.0717H83.7456V12.7677H85.9536V8.87973H88.6176V12.7677H92.2896V15.0717H88.6176V21.4797L89.5536 22.4157H92.2896V24.7197H88.2816L85.9056 22.3437ZM105.378 12.7677V27.5517L102.906 29.9997H96.8104L94.6984 27.9117V26.3277H97.4104V27.1197L97.9864 27.7197H101.73L102.666 26.7597V22.6797L100.65 24.7197H96.7864L94.3384 22.2477V12.7677H97.0504V21.4557L97.9864 22.3917H100.17L102.666 19.7997V12.7677H105.378ZM118.762 10.2957H113.722V7.91973H126.586V10.2957H121.546V24.7197H118.762V10.2957ZM126.234 22.3197V15.1677L128.61 12.7677H135.234L137.634 15.1677V22.3197L135.234 24.7197H128.61L126.234 22.3197ZM133.962 22.4397L134.922 21.4797V16.0077L133.962 15.0477H129.906L128.946 16.0077V21.4797L129.906 22.4397H133.962ZM140.393 22.2957V12.7677H143.105V21.4557L144.041 22.3917H146.129L148.673 19.8477V12.7677H151.385V24.7197H148.865V22.5117L146.633 24.7197H142.817L140.393 22.2957ZM154.265 22.3437V15.1437L156.617 12.7677H162.929L165.305 15.1677V17.1357H162.593V16.0317L161.633 15.0957H157.937L156.977 16.0317V21.4557L157.937 22.3917H161.633L162.593 21.4557V20.3517H165.305V22.3197L162.929 24.7197H156.617L154.265 22.3437ZM167.701 7.58373H170.413V14.8317L172.477 12.7677H176.245L178.765 15.2877V24.7197H176.053V16.0317L175.117 15.0957H172.909L170.413 17.6157V24.7197H167.701V7.58373Z" fill="white"/>
<defs>
<linearGradient id="paint0_linear_637_1047" x1="5.25714" y1="3.14845" x2="34.3992" y2="11.0381" gradientUnits="userSpaceOnUse">
<stop stop-color="#FC84FF"/>
<stop offset="1" stop-color="#54D1FA"/>
</linearGradient>
</defs>
</svg>
